<svg viewBox="0 -25 512 512" xmlns="http://www.w3.org/2000/svg"><path d="m3.605469 94.753906v363.242188c0 2.210937 1.792969 4.003906 4 4.003906h496.789062c2.210938 0 4-1.792969 4-4.003906v-363.242188c0-2.210937-1.789062-4.003906-4-4.003906h-496.789062c-2.210938 0-4 1.792969-4 4.003906zm54.597656 60.964844c-8.527344 0-15.449219-6.929688-15.449219-15.46875s6.921875-15.46875 15.449219-15.46875c8.53125 0 15.453125 6.929688 15.453125 15.46875s-6.921875 15.46875-15.453125 15.46875zm395.59375 0c-8.53125 0-15.453125-6.929688-15.453125-15.46875s6.921875-15.46875 15.453125-15.46875c8.527344 0 15.449219 6.929688 15.449219 15.46875s-6.921875 15.46875-15.449219 15.46875zm0 0" fill="#b0693c"/><path d="m477.488281 90.75v371.25h26.90625c2.207031 0 4-1.792969 4-4.003906v-363.242188c0-2.210937-1.792969-4.003906-4-4.003906zm0 0" fill="#9c5d35"/><path d="m3.605469 214.5h504.789062v123.75h-504.789062zm0 0" fill="#9c5d35"/><path d="m477.488281 214.5h30.90625v123.75h-30.90625zm0 0" fill="#8c5430"/><path d="m261.78125 357.402344v4.3125c0 15.910156 12.867188 28.8125 28.746094 28.8125h3.421875c3.699219 0 7.046875 1.5 9.46875 3.941406 2.636719 2.636719 4.183593 6.363281 3.898437 10.449219-.492187 7.097656-6.632812 12.480469-13.726562 12.480469h-90.777344c-3.699219 0-7.050781-1.5-9.472656-3.941407-2.636719-2.628906-4.179688-6.363281-3.894532-10.449219.492188-7.101562 6.628907-12.480468 13.722657-12.480468h3.066406c15.875 0 28.742187-12.902344 28.742187-28.8125v-4.3125c0-27.175782-13.410156-52.574219-35.808593-67.878906-25.117188-17.164063-40.769531-47.039063-38.046875-79.929688l5.03125-60.773438c.171875-2.074218 1.90625-3.671874 3.984375-3.671874h156.484375c2.082031 0 3.816406 1.59375 3.988281 3.671874l5.027344 60.773438c2.726562 32.890625-12.925781 62.765625-38.042969 79.929688-22.402344 15.304687-35.8125 40.703124-35.8125 67.878906zm0 0" fill="#9fdbf5"/><path d="m334.484375 195.730469s-28.625 8.953125-61.089844 2.242187c-27.738281-5.738281-36.183593-18.066406-69.464843-18.066406-23.828126 0-41.65625 15.824219-41.65625 15.824219l-1.148438 13.859375c-4.238281 51.195312 36.042969 95.097656 87.253906 95.097656 51.210938 0 91.492188-43.902344 87.253906-95.097656zm0 0" fill="#ffbd54"/><path d="m254.25 304.480469c-1.9375.144531-3.894531.207031-5.871094.207031-48.730468 0-87.550781-39.746094-87.550781-87.699219 0-2.449219.097656-4.917969.304687-7.402343l1.140626-13.855469s28.628906 8.957031 61.089843 2.246093c27.742188-5.742187 30.449219-24.101562 63.734375-24.101562 6.554688 0 13.089844 1.652344 19.121094 4.050781 15.882812 6.316407 28.269531 17.804688 28.269531 17.804688l1.144531 13.859375c4.078126 49.21875-33 91.699218-81.382812 94.890625zm0 0" fill="#ffd659"/><path d="m58.203125 14.976562c-4.140625 0-7.5 3.359376-7.5 7.507813v106.109375c0 4.144531 3.359375 7.507812 7.5 7.507812 4.144531 0 7.5-3.359374 7.5-7.507812v-106.109375c0-4.144531-3.355469-7.507813-7.5-7.507813zm0 0" fill="#50475e"/><path d="m453.796875 14.976562c-4.144531 0-7.5 3.359376-7.5 7.507813v106.109375c0 4.144531 3.355469 7.507812 7.5 7.507812 4.140625 0 7.5-3.359374 7.5-7.507812v-106.109375c0-4.144531-3.359375-7.507813-7.5-7.507813zm0 0" fill="#50475e"/><path d="m507.996094 30.9375h-503.992188c-2.210937 0-4.003906-1.792969-4.003906-4.003906v-22.929688c0-2.210937 1.792969-4.003906 4.003906-4.003906h503.992188c2.210937 0 4.003906 1.792969 4.003906 4.003906v22.929688c0 2.210937-1.792969 4.003906-4.003906 4.003906zm0 0" fill="#685c79"/><path d="m507.996094 30.9375h-26.902344v-30.9375h26.902344c2.210937 0 4.003906 1.792969 4.003906 4.003906v22.929688c0 2.210937-1.792969 4.003906-4.003906 4.003906zm0 0" fill="#594f69"/></svg>